<?xml version="1.0" encoding="UTF-8"?>
<svg id="Camada_2" data-name="Camada 2" xmlns="http://www.w3.org/2000/svg" viewBox="0 0 805.94 177.65">
  <defs>
    <style>
      .cls-1 {
        fill: #f53d11;
      }

      .cls-2 {
        fill: #ff3312;
      }

      .cls-3 {
        fill: #fffefd;
      }
    </style>
  </defs>
  <g id="Camada_2-2" data-name="Camada 2">
    <g id="Camada_1-2" data-name="Camada 1">
      <g id="beorange_-_branco_e_laranja_sem_tag_" data-name="beorange - branco e laranja (sem tag)">
        <path class="cls-3" d="M0,137.14V0h21.33v68.19l-3.69,22.1,3.69,22.29v24.57H0ZM50.04,139.89c-7.01,0-13.26-1.5-18.74-4.49-5.48-2.99-9.78-7.1-12.91-12.33-3.13-5.23-4.68-11.15-4.68-17.78v-26.39c0-6.63,1.59-12.55,4.78-17.78,3.19-5.23,7.52-9.34,13-12.33,5.48-2.99,11.66-4.49,18.55-4.49,8.28,0,15.77,2.14,22.47,6.41,6.69,4.27,11.98,10.01,15.87,17.21,3.89,7.2,5.83,15.33,5.83,24.38s-1.94,16.99-5.83,24.19c-3.89,7.2-9.18,12.91-15.87,17.11-6.69,4.21-14.18,6.31-22.47,6.31ZM46.05,120.01c5.1,0,9.59-1.18,13.48-3.54,3.89-2.36,6.95-5.64,9.18-9.85,2.23-4.21,3.35-9.05,3.35-14.53s-1.12-10.33-3.35-14.53c-2.23-4.21-5.29-7.49-9.18-9.85-3.89-2.36-8.38-3.54-13.48-3.54s-9.63,1.18-13.58,3.54c-3.95,2.36-7.01,5.64-9.18,9.85-2.17,4.21-3.25,9.05-3.25,14.53s1.08,10.33,3.25,14.53c2.17,4.21,5.23,7.49,9.18,9.85,3.95,2.36,8.48,3.54,13.58,3.54Z"/>
        <path class="cls-3" d="M153.35,137.98c-8.94,0-16.98-2.02-24.12-6.05-7.14-4.03-12.79-9.59-16.95-16.67-4.16-7.08-6.24-15.02-6.24-23.84s2.05-16.73,6.15-23.75c4.1-7.01,9.65-12.57,16.67-16.67,7.01-4.1,14.81-6.15,23.37-6.15s15.67,1.93,22.07,5.77c6.39,3.85,11.42,9.13,15.09,15.83,3.66,6.71,5.49,14.34,5.49,22.91,0,1.49-.09,3.01-.28,4.56-.19,1.55-.47,3.26-.84,5.12h-73.38v-16.76h62.77l-7.64,6.7c-.25-5.46-1.3-10.06-3.17-13.78-1.86-3.73-4.5-6.58-7.92-8.57-3.42-1.98-7.61-2.98-12.57-2.98-5.21,0-9.75,1.12-13.6,3.35-3.85,2.24-6.83,5.37-8.94,9.41-2.11,4.04-3.17,8.85-3.17,14.43s1.12,10.49,3.35,14.71c2.24,4.22,5.4,7.48,9.5,9.78,4.1,2.3,8.82,3.45,14.16,3.45,4.59,0,8.85-.81,12.76-2.42,3.91-1.61,7.23-3.97,9.96-7.08l13.04,13.22c-4.35,5.09-9.62,8.94-15.83,11.55-6.21,2.61-12.79,3.91-19.74,3.91Z"/>
        <path class="cls-1" d="M321.53,137.14V45.71h21.33v91.43h-21.33ZM342.04,86.93l-7.27-3.63c0-11.6,2.58-21,7.74-28.2,5.16-7.2,12.97-10.8,23.42-10.8,4.59,0,8.73.83,12.43,2.49,3.7,1.66,7.14,4.33,10.33,8.03l-13.77,14.15c-1.66-1.78-3.51-3.06-5.54-3.82-2.04-.76-4.4-1.15-7.08-1.15-5.86,0-10.71,1.85-14.53,5.54-3.82,3.7-5.74,9.5-5.74,17.4Z"/>
        <path class="cls-1" d="M434.53,139.89c-8.29,0-15.78-2.1-22.47-6.31-6.69-4.21-11.98-9.91-15.87-17.11-3.89-7.2-5.83-15.26-5.83-24.19s1.94-17.18,5.83-24.38c3.89-7.2,9.18-12.94,15.87-17.21,6.69-4.27,14.18-6.41,22.47-6.41,7.01,0,13.22,1.5,18.64,4.49,5.42,3,9.72,7.11,12.91,12.33,3.18,5.23,4.78,11.16,4.78,17.78v26.39c0,6.63-1.56,12.56-4.68,17.78-3.13,5.23-7.43,9.34-12.91,12.33-5.48,2.99-11.73,4.49-18.74,4.49ZM438.02,120.01c7.77,0,14.05-2.61,18.83-7.84,4.78-5.23,7.17-11.92,7.17-20.08,0-5.48-1.08-10.33-3.25-14.53-2.17-4.21-5.2-7.49-9.08-9.85-3.89-2.36-8.45-3.54-13.67-3.54s-9.59,1.18-13.48,3.54c-3.89,2.36-6.95,5.64-9.18,9.85-2.23,4.21-3.35,9.05-3.35,14.53s1.11,10.33,3.35,14.53c2.23,4.21,5.29,7.49,9.18,9.85,3.89,2.36,8.38,3.54,13.48,3.54ZM463.24,137.14v-24.57l3.69-22.29-3.69-22.1v-22.48h21.33v91.43h-21.33Z"/>
        <path class="cls-1" d="M507.43,137.14V45.71h21.33v91.43h-21.33ZM569.91,138.67v-52.96c0-6.12-1.97-11.15-5.92-15.11-3.95-3.95-9.02-5.93-15.22-5.93-4.14,0-7.82.89-11.05,2.68-3.23,1.79-5.75,4.27-7.56,7.46-1.81,3.19-2.72,6.82-2.72,10.9l-8.34-4.59c0-7.01,1.55-13.22,4.65-18.64,3.1-5.42,7.4-9.69,12.9-12.81,5.49-3.12,11.67-4.68,18.52-4.68s13.19,1.75,18.62,5.26c5.43,3.51,9.7,8.03,12.8,13.58,3.1,5.55,4.65,11.31,4.65,17.3v57.55h-21.33Z"/>
        <path class="cls-1" d="M649.2,136.07c-8.16,0-15.52-2.01-22.09-6.02-6.57-4.01-11.73-9.53-15.49-16.54-3.76-7.01-5.64-14.85-5.64-23.52s1.88-16.44,5.64-23.33c3.76-6.88,8.92-12.33,15.49-16.35,6.56-4.01,13.93-6.02,22.09-6.02,7.27,0,13.64,1.47,19.12,4.4,5.48,2.93,9.75,6.98,12.81,12.14,3.06,5.16,4.59,11.19,4.59,18.07v22.56c0,6.76-1.56,12.75-4.68,17.97-3.13,5.23-7.43,9.31-12.91,12.24-5.48,2.93-11.79,4.4-18.93,4.4ZM650.37,177.65c-9.83,0-18.42-1.75-25.79-5.26-7.37-3.51-13.32-8.45-17.84-14.82l13.96-13.77c3.75,4.59,8.02,8.03,12.8,10.33,4.78,2.29,10.54,3.44,17.26,3.44,8.4,0,15.06-2.14,19.98-6.41,4.91-4.27,7.37-10.1,7.37-17.5v-22.56l3.69-20.27-3.69-20.46v-24.67h21.33v87.96c0,8.8-2.07,16.47-6.21,23.04-4.14,6.56-9.89,11.69-17.26,15.39-7.37,3.7-15.9,5.54-25.6,5.54ZM653.89,116.18c5.1,0,9.56-1.08,13.38-3.25,3.82-2.17,6.79-5.19,8.89-9.08,2.1-3.89,3.15-8.44,3.15-13.67s-1.05-9.78-3.15-13.67c-2.1-3.89-5.07-6.91-8.89-9.08-3.82-2.17-8.29-3.25-13.38-3.25s-9.59,1.08-13.48,3.25c-3.89,2.17-6.92,5.2-9.08,9.08-2.17,3.89-3.25,8.45-3.25,13.67s1.08,9.63,3.25,13.58c2.17,3.95,5.19,7.01,9.08,9.18,3.89,2.17,8.38,3.25,13.48,3.25Z"/>
        <path class="cls-1" d="M764.4,137.98c-8.94,0-16.98-2.02-24.12-6.05-7.14-4.03-12.79-9.59-16.95-16.67-4.16-7.08-6.24-15.02-6.24-23.84s2.05-16.73,6.15-23.75c4.1-7.01,9.65-12.57,16.67-16.67,7.01-4.1,14.81-6.15,23.37-6.15s15.67,1.93,22.07,5.77c6.39,3.85,11.42,9.13,15.09,15.83,3.66,6.71,5.49,14.34,5.49,22.91,0,1.49-.09,3.01-.28,4.56-.19,1.55-.47,3.26-.84,5.12h-73.38v-16.76h62.77l-7.64,6.7c-.25-5.46-1.3-10.06-3.17-13.78-1.86-3.73-4.5-6.58-7.92-8.57-3.42-1.98-7.61-2.98-12.57-2.98-5.21,0-9.75,1.12-13.6,3.35-3.85,2.24-6.83,5.37-8.94,9.41-2.11,4.04-3.17,8.85-3.17,14.43s1.12,10.49,3.35,14.71c2.24,4.22,5.4,7.48,9.5,9.78,4.1,2.3,8.82,3.45,14.16,3.45,4.59,0,8.85-.81,12.76-2.42,3.91-1.61,7.23-3.97,9.96-7.08l13.04,13.22c-4.35,5.09-9.62,8.94-15.83,11.55-6.21,2.61-12.79,3.91-19.74,3.91Z"/>
        <path class="cls-3" d="M260.57,47.96v14.48c0,1.28.85,2.41,2.08,2.74,9.54,2.55,17.06,10.07,19.64,19.61.33,1.23,1.46,2.07,2.74,2.07h14.5c1.78,0,3.14-1.61,2.83-3.36-3.53-19.48-18.94-34.87-38.43-38.37-1.75-.31-3.35,1.05-3.35,2.83Z"/>
        <path class="cls-2" d="M284.91,96c-1.33,0-2.49.92-2.77,2.23-2.7,12.47-13.79,21.85-27.06,21.85h0c-10.51,0-19.67-5.88-24.37-14.52-2.14-3.93-3.35-8.42-3.35-13.2h0c0-13.27,9.38-24.36,21.85-27.06,1.3-.28,2.23-1.44,2.23-2.77v-14.39c0-1.75-1.56-3.09-3.28-2.84-22.97,3.36-40.66,23.18-40.66,47.06h0c0,6.93,1.5,13.51,4.18,19.46.33.73.67,1.44,1.03,2.15.38.74.78,1.48,1.2,2.2.3.52.61,1.03.93,1.54,8.44,13.35,23.31,22.24,40.24,22.24h0c23.88,0,43.7-17.69,47.06-40.66.25-1.73-1.09-3.28-2.84-3.28h-14.39Z"/>
      </g>
    </g>
  </g>
</svg>